<svg xmlns="http://www.w3.org/2000/svg" xmlns:xlink="http://www.w3.org/1999/xlink" aria-hidden="true" viewBox="0 0 410 404">
  <defs>
    <linearGradient id="a" x1="0%" x2="100%" y1="0%" y2="100%">
      <stop offset="0%" stop-color="#41D1FF" />
      <stop offset="100%" stop-color="#BD34FE" />
    </linearGradient>
    <linearGradient id="b" x1="0%" x2="100%" y1="0%" y2="100%">
      <stop offset="0%" stop-color="#FFEA83" />
      <stop offset="8%" stop-color="#FFDD35" />
      <stop offset="100%" stop-color="#FFA800" />
    </linearGradient>
  </defs>
  <path fill="url(#a)" d="M399.641 59.524L215.83 390.22c-3.212 5.687-11.354 5.74-14.64.098L10.86 59.524C7.383 53.338 12.672 45.984 19.79 47.243l180.708 32.124a11.845 11.845 0 0 0 4.137 0l180.708-32.124c7.118-1.26 12.408 6.095 9.298 12.281Z" />
  <path fill="url(#b)" d="M292.965 16.202 157.466 42.77a5.969 5.969 0 0 0-4.802 4.802L121.665 202.5a5.969 5.969 0 0 0 7.603 6.866l30.83-9.12a5.969 5.969 0 0 1 7.375 7.146l-9.94 45.794a5.969 5.969 0 0 0 7.99 6.68l19.112-7.598a5.969 5.969 0 0 1 8.155 6.47l-14.38 70.17a5.969 5.969 0 0 0 8.712 6.295l5.664-3.273a5.969 5.969 0 0 0 2.55-3.365l98.966-291.77a5.969 5.969 0 0 0-6.722-7.563l-34.708 6.79a5.969 5.969 0 0 1-6.81-7.12l14.644-62.71a5.969 5.969 0 0 0-6.855-7.014Z" />
</svg>
