<svg xmlns="http://www.w3.org/2000/svg" viewBox="0 0 1000 1000"><defs><clipPath id="a"><path d="M400 180h420v140H400z" class="a"/></clipPath><clipPath id="b"><path d="M340-120h560v300H340z" class="a"/></clipPath><clipPath id="c"><path d="M400 320h440v460H400z" class="a"/></clipPath><clipPath id="d"><path d="M-132 610h364v497h-364z" class="a"/></clipPath><style>.a,.b{fill:none}.b{stroke:var(--color-text, #000);stroke-linecap:square;stroke-miterlimit:2;stroke-width:68px}</style></defs><path d="M60 481h160v219c0 160 120 220 400 220 200 0 320-10 320-10M232 245c-31.53-44.09-89.82-107.31-132-145M340 180h560" class="b"/><path d="M400 320h440v460H400z" class="b"/><path d="m630 180-52 140" class="b" style="clip-path:url(#a)"/><g style="clip-path:url(#b)"><path d="m780 60-80 120M540 180 460 60" class="b"/></g><g style="clip-path:url(#c)"><path d="M828 474H428M820 627H420" class="b"/></g><path d="M232 780 60 920" class="b" style="clip-path:url(#d)"/></svg>