<svg xmlns="http://www.w3.org/2000/svg" viewBox="0 0 1000 1000"><defs><clipPath id="a"><path d="M60 140h440v200H60z" class="a"/></clipPath><clipPath id="b"><path d="M110-78h340v218H110z" class="a"/></clipPath><clipPath id="c"><path d="M140 460h280v480H140z" class="a"/></clipPath><clipPath id="d"><path d="M580 0h498v1000H580z" class="a"/></clipPath><style>.a,.b{fill:none}.b{stroke:var(--color-text, #000);stroke-linecap:square;stroke-miterlimit:2;stroke-width:68px}</style></defs><path d="M580 60v200h320v120H580v480c0 40 20 80 180 80s173.85-40.48 180-80M140 940V460h280v400c0 61-22 80-80 80h-40M100 340h360M110 140h340" class="b"/><g style="clip-path:url(#a)"><path d="m340 340 60-200M220 340l-60-200" class="b"/></g><path d="M280 140V60" class="b" style="clip-path:url(#b)"/><g style="clip-path:url(#c)"><path d="M420 760H140M420 610H140" class="b"/></g><g style="clip-path:url(#d)"><path d="M580 780h320M580 647h320M580 513h320M580 140h320" class="b"/></g></svg>